<svg width="48" height="37" viewBox="0 0 48 37" fill="none" xmlns="http://www.w3.org/2000/svg">
<path d="M21 36.9494C21 36.9494 18 36.9494 18 33.9196C18 30.8898 21 21.8003 33 21.8003C45 21.8003 48 30.8898 48 33.9196C48 36.9494 45 36.9494 45 36.9494H21ZM33 18.7705C35.3869 18.7705 37.6761 17.8129 39.364 16.1083C41.0518 14.4037 42 12.0918 42 9.68111C42 7.27044 41.0518 4.95851 39.364 3.25391C37.6761 1.54931 35.3869 0.591675 33 0.591675C30.6131 0.591675 28.3239 1.54931 26.636 3.25391C24.9482 4.95851 24 7.27044 24 9.68111C24 12.0918 24.9482 14.4037 26.636 16.1083C28.3239 17.8129 30.6131 18.7705 33 18.7705Z" fill="#1746F9"/>
<path fill-rule="evenodd" clip-rule="evenodd" d="M15.648 36.9495C15.2033 36.0036 14.9815 34.9666 15 33.9196C15 29.8142 17.04 25.5877 20.808 22.6487C18.9273 22.0635 16.9678 21.7773 15 21.8004C3 21.8004 0 30.8898 0 33.9196C0 36.9495 3 36.9495 3 36.9495H15.648Z" fill="#1746F9"/>
<path d="M13.5 18.7705C15.4891 18.7705 17.3968 17.9725 18.8033 16.552C20.2098 15.1315 21 13.2049 21 11.196C21 9.18713 20.2098 7.26052 18.8033 5.84002C17.3968 4.41952 15.4891 3.62149 13.5 3.62149C11.5109 3.62149 9.60322 4.41952 8.1967 5.84002C6.79018 7.26052 6 9.18713 6 11.196C6 13.2049 6.79018 15.1315 8.1967 16.552C9.60322 17.9725 11.5109 18.7705 13.5 18.7705Z" fill="#1746F9"/>
</svg> 