<svg width="48" height="35" viewBox="0 0 48 35" fill="none" xmlns="http://www.w3.org/2000/svg">
<path d="M22 10.7333C22 15.1972 18.42 18.8128 14 18.8128C9.58 18.8128 6 15.1972 6 10.7333C6 6.26936 9.58 2.65378 14 2.65378C18.42 2.65378 22 6.26936 22 10.7333ZM22 24.3068V34.9718H0V30.932C0 26.4681 6.26 22.8525 14 22.8525C17 22.8525 19.74 23.3979 22 24.3068ZM48 34.9718H26V0.633911H48V34.9718ZM32 17.8028C32 16.4636 32.5268 15.1792 33.4645 14.2322C34.4021 13.2852 35.6739 12.7532 37 12.7532C38.3261 12.7532 39.5979 13.2852 40.5355 14.2322C41.4732 15.1792 42 16.4636 42 17.8028C42 19.1421 41.4732 20.4265 40.5355 21.3735C39.5979 22.3205 38.3261 22.8525 37 22.8525C35.6739 22.8525 34.4021 22.3205 33.4645 21.3735C32.5268 20.4265 32 19.1421 32 17.8028ZM44 8.71341C42.9391 8.71341 41.9217 8.28779 41.1716 7.53019C40.4214 6.77259 40 5.74507 40 4.67366H34C34 6.91572 32.22 8.71341 30 8.71341V26.8923C31.0609 26.8923 32.0783 27.3179 32.8284 28.0755C33.5786 28.8331 34 29.8606 34 30.932H40C40 28.7102 41.8 26.8923 44 26.8923V8.71341Z" fill="#1746F9"/>
</svg> 