<svg width="40" height="50" viewBox="0 0 40 50" fill="none" xmlns="http://www.w3.org/2000/svg">
  <path d="M20 0L0 8.97722V22.443C0 34.8989 8.53333 46.5469 20 49.3747C31.4667 46.5469 40 34.8989 40 22.443V8.97722L20 0ZM20 8.97722C21.7681 8.97722 23.4638 9.68657 24.714 10.9492C25.9643 12.2119 26.6667 13.9244 26.6667 15.7101C26.6667 17.4958 25.9643 19.2083 24.714 20.471C23.4638 21.7337 21.7681 22.443 20 22.443C18.2319 22.443 16.5362 21.7337 15.286 20.471C14.0357 19.2083 13.3333 17.4958 13.3333 15.7101C13.3333 13.9244 14.0357 12.2119 15.286 10.9492C16.5362 9.68657 18.2319 8.97722 20 8.97722ZM31.4 35.9089C28.7075 40.0713 24.6841 43.1763 20 44.7065C15.3159 43.1763 11.2925 40.0713 8.6 35.9089C7.84444 34.7867 7.2 33.6646 6.66667 32.4751C6.66667 28.772 12.6889 25.7422 20 25.7422C27.3111 25.7422 33.3333 28.7046 33.3333 32.4751C32.8 33.6646 32.1556 34.7867 31.4 35.9089Z" fill="#1746F9"/>
</svg>